<?xml version="1.0" encoding="UTF-8"?>
<svg width="24" height="24" viewBox="0 0 24 24" fill="none" xmlns="http://www.w3.org/2000/svg">
  <!-- Baseball Bat - Brown wooden color -->
  <path d="M21.5 2.5C21.5 2.5 20.5 1.5 19 2C17.5 2.5 15 5 13 7.5L10.5 10.5L9 12.5L7 15L5 17.5L3.5 19.5L2 21.5L3.5 23L5.5 21.5L7.5 19L10 16L12.5 13L14 11L16.5 8L19 5.5C20.5 3.5 21.5 2.5 21.5 2.5Z" 
        fill="#8B4513" 
        stroke="#654321" 
        stroke-width="0.5"/>
  <!-- Handle grip lines -->
  <line x1="19" y1="4" x2="17.5" y2="5.5" stroke="#654321" stroke-width="0.5" opacity="0.5"/>
  <line x1="18" y1="5" x2="16.5" y2="6.5" stroke="#654321" stroke-width="0.5" opacity="0.5"/>
  <!-- Highlight on bat -->
  <path d="M20 3.5C19.5 3.5 18 5 16.5 7L15 9L17 7C18.5 5 19.5 4 20 3.5Z" 
        fill="#A0522D" 
        opacity="0.6"/>
</svg>
