<svg xmlns="http://www.w3.org/2000/svg" xmlns:xlink="http://www.w3.org/1999/xlink" width="374" height="140" viewBox="0 0 374 140">
  <defs>
    <clipPath id="clip-path">
      <path id="Path_480" data-name="Path 480" d="M0,114.3H374v140H0Z" transform="translate(4 -111.3)"/>
    </clipPath>
  </defs>
  <g id="baseball" transform="translate(-8 -118.3)">
    <g id="Mask_Group_1" data-name="Mask Group 1" transform="translate(4 115.3)" clip-path="url(#clip-path)">
      <g id="Group_165" data-name="Group 165" transform="translate(-3.064 -2.114)">
        <path id="Path_474" data-name="Path 474" d="M0,114.3H385v150H0Z" transform="translate(2.064 -114.186)" fill="#bb810e"/>
        <g id="Group_168" data-name="Group 168" transform="translate(0.064 0.114)">
          <path id="Path_475" data-name="Path 475" d="M388.918,264.522H1.119L.6,263.985,144.041,115.3h94.382Z" transform="translate(-0.6 -114.226)" fill="#f4ad70"/>
          <path id="Path_476" data-name="Path 476" d="M381.705,264.6H9.048L7.7,263.414,152.7,114.3h76.44l152.78,150.08Z" transform="translate(-0.551 -114.3)" fill="#6b9a1a"/>
          <path id="Path_477" data-name="Path 477" d="M374.617,264.6,222.153,114.3H217.9L370.469,264.6Z" transform="translate(6.793 -114.3)" fill="#fff"/>
          <path id="Path_478" data-name="Path 478" d="M9.649,264.595l147.072-150.08-.1-.211h-3.944L5.5,264.595Z" transform="translate(-0.649 -114.3)" fill="#fff"/>
          <path id="Path_479" data-name="Path 479" d="M162.8,207.672a27.022,27.022,0,0,1,15.782-25.427,25.4,25.4,0,0,1,28.671,5.718,27.654,27.654,0,0,1,5.524,29.676,26.013,26.013,0,0,1-24.566,16.335c-13.9-.318-25.1-11.91-25.411-26.3Z" transform="translate(3.677 -109.444)" fill="#f4ad70"/>
        </g>
      </g>
    </g>
  </g>
</svg>
