<?xml version="1.0" encoding="utf-8"?>
<!-- Generator: Adobe Illustrator 23.0.6, SVG Export Plug-In . SVG Version: 6.00 Build 0)  -->
<svg version="1.1" id="Layer_1" xmlns="http://www.w3.org/2000/svg" xmlns:xlink="http://www.w3.org/1999/xlink" x="0px" y="0px"
	 viewBox="0 0 375 92" style="enable-background:new 0 0 375 92;" xml:space="preserve">
<style type="text/css">
	.st0{clip-path:url(#SVGID_2_);}
	.st1{fill:#00AEEF;}
	.st2{opacity:0.5;}
	.st3{fill:none;stroke:#FFFFFF;stroke-miterlimit:10;stroke-dasharray:8,11;}
	.st4{fill:none;stroke:#FFFFFF;stroke-miterlimit:10;}
	.st5{fill:#FFFFFF;}
</style>
<g>
	<defs>
		<rect id="SVGID_1_" x="0.1" y="0" width="375" height="92"/>
	</defs>
	<clipPath id="SVGID_2_">
		<use xlink:href="#SVGID_1_"  style="overflow:visible;"/>
	</clipPath>
	<g class="st0">
		<path class="st1" d="M0-0.2h374.9v92H0V-0.2z"/>
		<g class="st2">
			<g transform="translate(-42.4 33.54)">
				<path class="st3" d="M50.6,57.8C63.6,47.4,72,30.6,72,11.7C72-6.6,64.1-23,51.8-33.4"/>
				<path class="st4" d="M42.4,41.9c8.2-7.3,13.4-18.3,13.4-30.6s-5.2-23.4-13.4-30.6"/>
				<g>
					<path class="st5" d="M46.1,7.9h1v7.9h-1V7.9z"/>
					<path class="st5" d="M63.3,7.9h1v7.9h-1C63.3,15.8,63.3,7.9,63.3,7.9z"/>
				</g>
			</g>
			<g transform="translate(-42.4 33.54)">
				<path class="st3" d="M409.2,57.8c-13-10.4-21.4-27.2-21.4-46.1c0-18.3,7.9-34.7,20.2-45.1"/>
				<path class="st4" d="M417.4,41.9c-8.2-7.3-13.4-18.3-13.4-30.6s5.2-23.4,13.4-30.6"/>
				<g>
					<path class="st5" d="M412.8,7.9h1v7.9h-1V7.9z"/>
					<path class="st5" d="M395.5,7.9h1v7.9h-1V7.9z"/>
				</g>
			</g>
			<path class="st5" d="M187.5,62.3c-9.1,0-16.5-7.4-16.5-16.5s7.4-16.5,16.5-16.5S204,36.7,204,45.8S196.6,62.3,187.5,62.3z
				 M187.5,30.3c-8.5,0-15.5,7-15.5,15.5s7,15.5,15.5,15.5s15.5-7,15.5-15.5S196,30.3,187.5,30.3z"/>
			<path class="st5" d="M187-0.2h1v92h-1V-0.2z"/>
		</g>
	</g>
</g>
</svg>
