<?xml version="1.0" encoding="utf-8"?>
<!-- Generator: Adobe Illustrator 23.0.6, SVG Export Plug-In . SVG Version: 6.00 Build 0)  -->
<svg version="1.1" id="Layer_1" xmlns="http://www.w3.org/2000/svg" xmlns:xlink="http://www.w3.org/1999/xlink" x="0px" y="0px"
	 viewBox="0 0 375 92" style="enable-background:new 0 0 375 92;" xml:space="preserve">
<style type="text/css">
	.st0{clip-path:url(#SVGID_2_);}
	.st1{fill:#00AEEF;}
	.st2{opacity:0.5;}
	.st3{fill:none;stroke:#FFFFFF;stroke-miterlimit:10;stroke-dasharray:8,11;}
	.st4{fill:none;stroke:#FFFFFF;stroke-miterlimit:10;}
	.st5{fill:#FFFFFF;}
</style>
<g>
	<g>
		<g>
			<defs>
				<rect id="SVGID_1_" width="375" height="92"/>
			</defs>
			<clipPath id="SVGID_2_">
				<use xlink:href="#SVGID_1_"  style="overflow:visible;"/>
			</clipPath>
			<g class="st0">
				<path class="st1" d="M0,0h374.9v92H0V0z"/>
				<g class="st2">
					<g transform="translate(-42.4 33.54)">
						<path class="st3" d="M50.6,58.1C63.6,47.7,72,30.9,72,12c0-18.3-7.9-34.7-20.2-45.1"/>
						<path class="st4" d="M42.4,42.2c8.2-7.3,13.4-18.3,13.4-30.6S50.6-11.8,42.4-19"/>
						<g>
							<path class="st5" d="M46.1,8.2h1v7.9h-1V8.2z"/>
							<path class="st5" d="M63.3,8.2h1v7.9h-1V8.2z"/>
						</g>
					</g>
					<g transform="translate(-42.4 33.54)">
						<path class="st3" d="M409.3,58.1c-13-10.4-21.4-27.2-21.4-46.1c0-18.3,7.9-34.7,20.2-45.1"/>
						<path class="st4" d="M417.4,42.2c-8.2-7.3-13.4-18.3-13.4-30.6s5.2-23.4,13.4-30.6"/>
						<g>
							<path class="st5" d="M412.8,8.2h1v7.9h-1V8.2z"/>
							<path class="st5" d="M395.5,8.2h1v7.9h-1V8.2z"/>
						</g>
					</g>
					<path class="st5" d="M187.1,0h1v92h-1V0z"/>
				</g>
			</g>
		</g>
	</g>
</g>
</svg>
