<?xml version="1.0" encoding="utf-8"?>
<!-- Generator: Adobe Illustrator 23.0.6, SVG Export Plug-In . SVG Version: 6.00 Build 0)  -->
<svg version="1.1" id="Layer_1" xmlns="http://www.w3.org/2000/svg" xmlns:xlink="http://www.w3.org/1999/xlink" x="0px" y="0px"
	 viewBox="0 0 375 92" style="enable-background:new 0 0 375 92;" xml:space="preserve">
<style type="text/css">
	.st0{clip-path:url(#SVGID_2_);}
	.st1{fill:#6B9A1A;}
	.st2{opacity:0.56;fill:#FFFFFF;enable-background:new    ;}
	.st3{opacity:0.7;enable-background:new    ;}
	.st4{opacity:0.69;fill:#FFFFFF;enable-background:new    ;}
	.st5{opacity:0.6;}
	.st6{fill:#FFFFFF;}
</style>
<g>
	<g>
		<g>
			<defs>
				<rect id="SVGID_1_" y="0" width="375" height="92"/>
			</defs>
			<clipPath id="SVGID_2_">
				<use xlink:href="#SVGID_1_"  style="overflow:visible;"/>
			</clipPath>
			<g class="st0">
				<g transform="translate(.5 -115.5)">
					<path class="st1" d="M-0.5,115.5h375v92h-375V115.5z"/>
					<path class="st2" d="M316.2,115.5h1v92h-1V115.5z"/>
					<g>
						<path class="st3" d="M187,120.5c-2.2,0-4-1.8-4-4c0-0.3,0-0.6,0.1-0.9h7.8c0.1,0.3,0.1,0.6,0.1,0.9
							C191,118.8,189.2,120.5,187,120.5L187,120.5z"/>
						<path class="st3" d="M187,202.7c2.2,0,4,1.8,4,4c0,0.3,0,0.6-0.1,0.9h-7.8c-0.1-0.3-0.1-0.6-0.1-0.9
							C183,204.4,184.8,202.7,187,202.7L187,202.7z"/>
						<path class="st3" d="M373.5,202.6c0.3,0,0.7,0,1,0.1v4.8h-4.9c-0.1-0.3-0.1-0.7-0.1-1C369.5,204.3,371.3,202.6,373.5,202.6z"
							/>
						<path class="st3" d="M0.5,120.6c-0.3,0-0.7,0-1-0.1v-4.8h4.9c0.1,0.3,0.1,0.7,0.1,1C4.5,118.9,2.7,120.6,0.5,120.6z"/>
						<path class="st3" d="M369.5,116.8c0-0.5,0.1-0.9,0.2-1.3h4.8v5.1c-0.3,0.1-0.7,0.1-1,0.1C371.3,120.7,369.5,119,369.5,116.8z"
							/>
						<path class="st3" d="M4.5,206.2c0,0.5-0.1,0.9-0.2,1.3h-4.8v-5.1c0.3-0.1,0.7-0.1,1-0.1C2.7,202.3,4.5,204,4.5,206.2z"/>
						<ellipse class="st4" cx="57.8" cy="161.5" rx="1" ry="1"/>
					</g>
				</g>
				<g class="st5">
					<path class="st6" d="M317.7,35.1c5.5,0.6,9.7,5.3,9.7,10.9s-4.2,10.3-9.7,10.9v1c6.1-0.6,10.7-5.7,10.7-11.9
						s-4.6-11.3-10.7-11.9V35.1z"/>
				</g>
			</g>
		</g>
	</g>
</g>
</svg>
